<svg width="10" height="6" viewBox="0 0 10 6" fill="none" xmlns="http://www.w3.org/2000/svg">
<path d="M0.200094 0.740094C0.267064 0.667859 0.347607 0.609524 0.437123 0.56842C0.52664 0.527316 0.623376 0.504248 0.721809 0.500533C0.820242 0.496819 0.918442 0.512531 1.0108 0.546772C1.10316 0.581013 1.18787 0.633112 1.26009 0.700094L5.00009 4.22709L8.74009 0.700094C8.81232 0.63312 8.89703 0.581028 8.98939 0.546792C9.08175 0.512556 9.17995 0.496847 9.27838 0.500561C9.37681 0.504275 9.47354 0.527341 9.56306 0.56844C9.65258 0.609539 9.73312 0.667867 9.80009 0.740094C9.86707 0.812321 9.91916 0.897033 9.9534 0.989392C9.98763 1.08175 10.0033 1.17995 9.99963 1.27838C9.99591 1.37681 9.97285 1.47354 9.93175 1.56306C9.89065 1.65258 9.83232 1.73312 9.76009 1.80009L5.51009 5.80009C5.37141 5.92872 5.18924 6.00019 5.00009 6.00019C4.81095 6.00019 4.62878 5.92872 4.49009 5.80009L0.240094 1.80009C0.167859 1.73313 0.109524 1.65258 0.06842 1.56307C0.0273159 1.47355 0.00424789 1.37681 0.000533453 1.27838C-0.00318098 1.17995 0.012531 1.08175 0.0467719 0.989387C0.0810128 0.897027 0.133112 0.812317 0.200094 0.740094Z" fill="white"/>
</svg>
